<?xml version="1.0" encoding="UTF-8" standalone="no"?>
<!DOCTYPE svg PUBLIC "-//W3C//DTD SVG 20010904//EN"
              "http://www.w3.org/TR/2001/REC-SVG-20010904/DTD/svg10.dtd">

<svg xmlns="http://www.w3.org/2000/svg"
     width="2.59in" height="2.96333in"
     viewBox="0 0 777 889">
  <path id="Selection"
        fill="none" stroke="black" stroke-width="1"
        d="M 294.00,78.00
           C 298.63,54.98 307.42,32.37 327.00,17.92
             361.22,-7.32 422.10,-3.93 451.83,27.09
             460.39,36.02 467.69,52.03 470.84,64.00
             471.56,66.72 473.28,74.34 472.36,76.82
             471.22,79.91 463.94,83.66 461.00,85.72
             452.27,91.83 447.43,96.49 440.00,104.00
             420.47,123.76 405.48,152.75 400.00,180.00
             400.00,180.00 426.00,183.42 426.00,183.42
             447.10,188.08 467.14,198.33 483.00,213.09
             503.61,232.26 513.61,255.12 526.86,279.00
             538.27,299.57 548.51,314.82 566.00,330.91
             581.99,345.62 603.23,351.28 624.00,355.20
             624.00,355.20 645.00,358.00 645.00,358.00
             609.08,373.45 562.79,388.37 525.00,370.68
             515.14,366.06 513.32,362.03 506.00,356.00
             503.99,370.23 495.74,381.56 485.72,391.42
             466.52,410.30 445.56,418.27 423.00,431.28
             400.34,444.36 375.43,466.36 365.45,491.00
             359.87,504.78 357.83,521.21 358.00,536.00
             358.36,566.83 373.73,606.94 386.14,635.00
             409.10,686.94 441.88,741.17 472.69,789.00
             472.69,789.00 506.33,840.00 506.33,840.00
             506.33,840.00 524.00,867.00 524.00,867.00
             524.00,867.00 491.00,876.87 491.00,876.87
             471.83,881.67 439.56,886.77 420.00,887.00
             420.00,887.00 406.00,888.00 406.00,888.00
             406.00,888.00 377.00,888.00 377.00,888.00
             377.00,888.00 364.00,887.04 364.00,887.04
             317.61,885.02 267.19,874.17 224.00,857.00
             224.00,857.00 237.12,813.00 237.12,813.00
             239.34,803.63 241.95,788.50 242.00,779.00
             242.00,779.00 243.00,763.00 243.00,763.00
             243.00,763.00 243.00,746.00 243.00,746.00
             243.00,746.00 240.17,715.00 240.17,715.00
             240.17,715.00 238.83,698.00 238.83,698.00
             238.83,698.00 227.17,605.00 227.17,605.00
             227.17,605.00 223.83,567.00 223.83,567.00
             223.83,567.00 222.00,540.00 222.00,540.00
             222.00,540.00 221.04,530.00 221.04,530.00
             221.04,530.00 221.04,517.00 221.04,517.00
             221.04,517.00 220.00,502.00 220.00,502.00
             220.00,502.00 220.00,481.00 220.00,481.00
             220.00,481.00 219.00,465.00 219.00,465.00
             219.00,465.00 219.00,423.00 219.00,423.00
             219.00,423.00 220.00,401.00 220.00,401.00
             220.00,401.00 221.83,380.00 221.83,380.00
             225.17,346.65 229.63,326.04 239.28,294.00
             247.42,266.97 258.97,239.52 279.04,219.01
             302.54,194.99 334.98,182.68 368.00,180.00
             368.00,180.00 361.94,159.00 361.94,159.00
             350.35,128.43 324.45,91.58 294.00,78.00 Z
           M 488.00,71.00
           C 497.26,72.31 515.75,78.90 525.00,82.32
             555.98,93.77 587.14,110.38 614.00,129.58
             667.56,167.86 711.07,219.41 739.22,279.00
             800.66,409.04 785.38,568.03 696.58,682.00
             659.16,730.02 615.38,766.06 561.00,793.25
             548.38,799.56 535.34,805.36 522.00,810.00
             519.01,811.04 510.75,814.65 508.09,814.08
             505.59,813.54 503.85,810.93 502.43,809.00
             497.50,802.27 496.54,798.97 493.03,792.00
             493.03,792.00 466.32,748.00 466.32,748.00
             462.55,742.01 454.50,730.31 453.00,724.00
             462.36,722.68 477.92,717.44 487.00,714.05
             511.59,704.88 532.59,693.97 554.00,678.71
             581.88,658.83 606.68,633.29 625.97,605.00
             653.43,564.73 669.22,517.35 673.96,469.00
             673.96,469.00 673.96,460.00 673.96,460.00
             673.96,460.00 675.00,450.00 675.00,450.00
             675.00,450.00 675.00,444.00 675.00,444.00
             675.00,444.00 673.96,432.00 673.96,432.00
             673.96,432.00 673.96,422.00 673.96,422.00
             668.97,370.97 651.45,321.81 621.57,280.00
             597.52,246.35 568.37,220.22 533.00,199.00
             510.23,185.34 483.76,174.60 458.00,168.13
             448.28,165.68 431.76,162.09 422.00,162.00
             426.13,144.37 444.44,120.04 458.00,108.43
             458.00,108.43 478.00,92.21 478.00,92.21
             480.72,90.08 485.42,86.94 486.98,83.96
             488.45,81.15 488.00,74.36 488.00,71.00 Z
           M 224.00,797.00
           C 191.57,783.03 157.43,759.43 131.00,736.15
             72.24,684.41 31.09,615.84 12.13,540.00
             6.93,519.22 3.40,498.36 1.91,477.00
             1.91,477.00 1.00,467.00 1.00,467.00
             1.00,467.00 1.00,426.00 1.00,426.00
             1.02,413.37 3.81,393.73 5.92,381.00
             14.33,330.22 31.53,286.03 58.00,242.00
             76.82,210.71 100.80,182.13 128.00,157.84
             160.07,129.19 188.36,111.13 227.00,92.75
             238.82,87.12 266.65,75.74 279.00,74.00
             279.00,76.76 278.73,80.50 280.02,82.96
             281.52,85.82 285.42,88.43 288.00,90.37
             288.00,90.37 304.00,103.05 304.00,103.05
             320.55,117.67 341.90,139.73 344.00,163.00
             299.58,171.09 261.00,185.39 224.00,211.86
             192.30,234.54 166.05,261.87 145.42,295.00
             93.19,378.92 88.05,484.56 132.27,573.00
             144.62,597.70 162.50,623.49 182.00,643.00
             182.00,643.00 206.00,665.59 206.00,665.59
             208.81,667.93 217.57,674.49 218.98,677.09
             220.01,679.00 220.77,687.40 221.00,690.00
             221.00,690.00 223.09,712.00 223.09,712.00
             223.09,712.00 227.09,759.00 227.09,759.00
             227.09,759.00 227.92,767.00 227.92,767.00
             227.92,767.00 226.94,774.00 226.94,774.00
             226.94,774.00 226.94,782.00 226.94,782.00
             226.94,782.00 224.00,797.00 224.00,797.00 Z
           M 415.00,320.00
           C 424.65,320.00 438.61,318.26 439.89,306.00
             440.09,304.12 440.06,301.03 438.98,299.43
             437.47,297.20 433.47,296.47 431.00,295.65
             431.00,295.65 416.00,289.40 416.00,289.40
             402.21,282.52 393.32,275.33 382.00,265.00
             378.09,261.43 366.45,250.38 362.00,249.31
             351.87,246.88 340.48,259.88 347.31,269.00
             350.14,272.77 360.08,281.91 364.00,285.27
             373.63,293.52 385.39,302.82 397.00,308.00
             382.46,321.23 377.36,321.06 365.58,340.00
             363.24,343.75 361.80,345.70 360.36,350.00
             358.76,354.81 358.02,363.83 358.00,369.00
             360.94,369.00 366.40,369.26 369.00,368.26
             378.64,364.54 379.07,350.72 382.99,344.00
             387.39,336.45 394.68,330.55 402.00,326.00
             402.00,329.13 401.56,338.14 405.40,339.28
             406.50,339.61 407.62,339.17 408.42,338.39
             410.63,336.21 410.00,329.08 410.00,326.00
             414.52,325.21 414.63,324.44 415.00,320.00 Z" />
</svg>
