<?xml version="1.0" encoding="UTF-8" standalone="no"?>
<!DOCTYPE svg PUBLIC "-//W3C//DTD SVG 20010904//EN"
              "http://www.w3.org/TR/2001/REC-SVG-20010904/DTD/svg10.dtd">

<svg xmlns="http://www.w3.org/2000/svg"
     width="5.67333in" height="4.34in"
     viewBox="0 0 1702 1302">
  <path id="Unnamed"
        fill="none" stroke="black" stroke-width="1"
        d="M 1031.12,554.62
           C 1031.12,554.62 1031.38,163.38 1031.25,135.38
             1031.12,107.38 1061.50,104.12 1067.00,103.88
             1072.50,103.62 1217.25,102.25 1217.25,102.25
             1217.25,102.25 1217.25,157.25 1217.12,254.62
             1218.00,358.00 1184.91,484.26 1031.12,554.62 Z
           M 989.75,571.38
           C 975.75,577.12 910.62,601.25 864.75,597.75
             864.62,584.38 863.75,78.75 863.88,55.38
             864.00,32.00 887.00,29.75 889.25,30.00
             891.50,30.25 1217.88,29.00 1217.88,29.00
             1217.88,29.00 1218.00,62.62 1218.00,62.62
             1218.00,62.62 1082.88,62.00 1037.00,62.12
             996.38,65.62 989.88,104.12 990.00,109.00
             990.12,113.88 989.91,557.64 989.75,571.38 Z
           M 837.82,598.09
           C 837.82,598.09 837.62,65.88 837.50,55.50
             837.38,45.12 831.50,30.62 809.25,29.75
             787.00,28.88 484.12,29.12 484.12,29.12
             484.12,29.12 484.12,62.75 484.12,62.75
             484.12,62.75 644.88,61.88 664.62,61.88
             684.38,61.88 709.75,79.38 711.25,107.25
             712.75,135.12 712.00,571.62 712.00,571.62
             712.00,571.62 756.73,594.06 837.82,598.09 Z
           M 670.62,554.38
           C 592.67,520.00 486.67,436.00 485.27,270.18
             483.82,204.91 484.25,102.75 484.25,102.75
             484.25,102.75 616.88,102.62 635.12,102.88
             653.38,103.12 670.38,113.38 670.62,137.00
             670.88,160.62 670.73,525.82 670.62,554.38 Z
           M 340.91,686.18
           C 340.91,686.18 243.45,686.73 243.45,686.73
             243.45,686.73 243.27,733.64 243.27,733.64
             243.27,733.64 269.27,733.45 269.27,733.45
             269.27,733.45 268.91,828.91 268.91,828.91
             268.91,828.91 315.09,828.91 315.09,828.91
             315.09,828.91 315.09,732.73 315.09,732.73
             315.09,732.73 340.18,733.09 340.18,733.09
             340.18,733.09 340.91,686.18 340.91,686.18 Z
           M 376.91,686.36
           C 376.91,686.36 462.36,686.36 462.36,686.36
             462.36,686.36 462.36,724.91 462.36,724.91
             462.36,724.91 422.00,724.73 422.00,724.73
             422.00,724.73 421.82,739.09 421.82,739.09
             421.82,739.09 458.73,739.09 458.73,739.09
             458.73,739.09 458.91,775.09 458.91,775.09
             458.91,775.09 422.18,775.64 422.18,775.64
             422.18,775.64 421.82,790.55 421.82,790.55
             421.82,790.55 463.64,790.18 463.64,790.18
             463.64,790.18 463.64,828.55 463.64,828.55
             463.64,828.55 376.73,827.82 376.73,828.00
             376.73,828.18 376.91,686.36 376.91,686.36 Z
           M 597.27,690.00
           C 597.27,690.00 597.45,742.73 597.45,742.73
             600.11,737.66 551.69,709.72 545.27,756.91
             546.29,799.71 590.91,784.36 598.18,772.55
             598.00,799.27 597.09,826.00 597.09,826.00
             597.09,826.00 570.91,838.00 545.09,829.27
             519.27,820.55 507.09,799.64 501.09,781.27
             495.09,762.91 499.27,730.73 510.00,714.18
             520.73,697.64 539.45,686.55 555.45,684.18
             569.75,680.91 590.43,686.36 597.27,690.00 Z
           M 638.73,686.91
           C 638.73,686.91 684.91,686.73 684.91,686.73
             684.91,686.73 684.73,734.00 684.73,734.00
             684.73,734.00 713.27,733.82 713.27,733.82
             713.27,733.82 713.27,686.36 713.27,686.36
             713.27,686.36 759.09,686.91 759.09,686.91
             759.09,686.91 759.45,828.55 759.45,828.55
             759.45,828.55 713.09,828.91 713.09,828.91
             713.09,828.91 712.91,778.36 712.91,778.36
             712.91,778.36 684.91,778.55 684.91,778.55
             684.91,778.55 685.09,828.73 685.09,828.73
             685.09,828.73 638.18,829.09 638.18,829.09
             638.18,829.09 638.73,686.91 638.73,686.91 Z
           M 803.82,686.36
           C 803.82,686.36 849.27,687.09 849.27,687.09
             849.27,687.09 889.45,760.55 889.45,760.55
             889.45,760.55 888.18,686.18 888.18,686.18
             888.18,686.18 932.55,686.55 932.55,686.55
             932.55,686.55 932.55,828.91 932.55,828.91
             932.55,828.91 886.73,828.73 886.73,828.73
             886.73,828.73 847.45,755.45 847.45,755.45
             847.45,755.45 848.55,828.91 848.55,828.91
             848.55,828.91 803.82,828.36 803.82,828.36
             803.82,828.36 803.82,686.36 803.82,686.36 Z
           M 977.82,686.55
           C 977.82,686.55 1024.73,686.36 1024.73,686.36
             1024.73,686.36 1024.55,829.09 1024.55,829.09
             1024.55,829.09 977.64,828.73 977.64,828.73
             977.64,828.73 977.82,686.55 977.82,686.55 Z
           M 1164.55,742.18
           C 1164.55,742.18 1164.73,690.36 1164.73,690.36
             1164.73,690.36 1137.64,678.00 1112.91,685.82
             1088.18,693.64 1072.00,716.73 1068.18,735.82
             1064.36,754.91 1064.91,788.00 1079.45,804.73
             1094.00,821.45 1108.36,833.64 1137.45,832.36
             1150.00,831.27 1149.45,832.18 1163.45,825.64
             1163.82,810.55 1165.45,772.91 1165.45,772.91
             1165.45,772.91 1151.64,784.91 1138.91,785.09
             1126.18,785.27 1116.18,780.91 1113.45,765.64
             1110.73,750.36 1118.00,735.45 1125.27,732.36
             1132.55,729.27 1146.91,728.36 1155.27,734.91
             1163.64,741.45 1164.55,742.18 1164.55,742.18 Z
           M 1188.36,828.18
           C 1188.36,828.18 1234.18,686.18 1234.18,686.18
             1234.18,686.18 1286.36,686.73 1286.36,686.73
             1286.36,686.73 1330.73,828.73 1330.73,828.73
             1330.73,828.73 1281.45,828.91 1281.45,828.91
             1281.45,828.91 1277.09,811.27 1277.09,811.27
             1277.09,811.27 1242.18,811.09 1242.18,811.09
             1242.18,811.09 1238.18,828.73 1238.18,828.91
             1238.18,829.09 1188.36,828.18 1188.36,828.18 Z
           M 1249.64,777.82
           C 1249.45,777.45 1259.09,729.09 1259.09,729.09
             1259.09,729.09 1270.18,777.82 1270.18,777.82
             1270.18,777.82 1249.82,778.18 1249.64,777.82 Z
           M 1359.25,687.25
           C 1359.25,687.25 1405.25,686.75 1405.25,686.75
             1405.25,686.75 1405.25,782.75 1405.25,782.75
             1405.25,782.75 1450.25,783.00 1450.25,783.00
             1450.25,783.00 1450.00,828.50 1450.00,828.50
             1450.00,828.50 1358.75,829.00 1358.75,829.00
             1358.75,829.00 1359.25,687.25 1359.25,687.25 Z
           M 199.09,890.73
           C 199.09,890.73 246.00,890.36 246.00,890.36
             246.00,890.36 246.55,968.55 246.18,977.45
             245.82,986.36 251.27,991.64 258.00,991.82
             264.73,992.00 271.45,988.00 271.82,976.73
             272.18,965.45 271.82,890.73 271.82,890.73
             271.82,890.73 317.82,890.18 317.82,890.18
             317.82,890.18 318.00,950.36 317.45,975.27
             316.91,1000.18 306.91,1036.73 260.18,1036.36
             213.45,1036.00 199.27,1002.73 199.45,981.64
             199.64,960.55 199.09,890.73 199.09,890.73 Z
           M 362.50,890.25
           C 362.50,890.25 408.25,890.25 408.25,890.25
             408.25,890.25 447.00,964.75 447.00,964.75
             447.00,964.75 445.50,890.75 446.50,890.75
             447.50,890.75 491.75,890.00 491.75,890.00
             491.75,890.00 491.25,1033.25 491.25,1033.25
             491.25,1033.25 445.00,1032.50 445.00,1032.50
             445.00,1032.50 406.50,959.75 406.50,959.75
             406.50,959.75 407.00,1033.50 407.00,1033.50
             407.00,1033.50 363.25,1032.75 363.25,1032.75
             363.25,1032.75 362.50,890.25 362.50,890.25 Z
           M 536.25,890.00
           C 536.25,890.00 582.75,890.25 582.75,890.25
             582.75,890.25 583.50,1033.00 583.50,1033.00
             583.50,1033.00 536.00,1032.75 536.00,1032.75
             536.00,1032.75 536.25,890.00 536.25,890.00 Z
           M 609.75,890.25
           C 609.75,890.25 660.25,890.25 660.25,890.25
             660.25,890.25 680.50,977.75 680.50,977.75
             680.50,977.75 703.25,890.75 703.25,890.75
             703.25,890.75 751.50,890.75 751.50,890.75
             751.50,890.75 702.25,1033.25 702.25,1033.25
             702.25,1033.25 659.25,1033.50 659.25,1033.50
             659.25,1033.50 609.75,890.25 609.75,890.25 Z
           M 777.75,890.75
           C 777.75,890.75 863.50,890.75 863.50,890.50
             863.50,890.25 863.50,929.25 863.50,929.25
             863.50,929.25 824.00,929.75 824.00,929.75
             824.00,929.75 822.50,944.00 822.50,944.00
             822.50,944.00 859.75,942.75 859.50,943.00
             859.25,943.25 859.50,978.25 859.50,978.25
             859.50,978.25 822.75,979.00 822.75,979.00
             822.75,979.00 822.75,994.50 822.75,994.50
             822.75,994.50 864.75,994.50 864.75,994.50
             864.75,994.50 864.50,1032.75 864.50,1032.75
             864.50,1032.75 778.00,1032.25 778.00,1032.25
             778.00,1032.25 777.75,890.75 777.75,890.75 Z
           M 903.75,890.75
           C 903.75,890.75 903.75,1032.25 903.75,1032.25
             903.75,1032.25 949.25,1031.75 949.00,1032.25
             948.75,1032.75 949.25,987.25 949.25,987.25
             949.25,987.25 972.00,1032.75 972.00,1032.75
             972.00,1032.75 1023.25,1032.75 1023.25,1032.75
             1023.25,1032.75 989.75,975.50 989.75,975.25
             989.75,975.00 1013.25,970.25 1014.50,940.75
             1015.75,911.25 995.75,891.75 970.25,891.25
             944.75,890.75 903.75,890.75 903.75,890.75 Z
           M 948.50,926.75
           C 948.50,926.75 948.25,955.50 948.25,955.50
             948.25,955.50 954.50,954.75 961.75,954.50
             969.00,954.25 969.50,944.75 969.50,941.75
             969.50,938.75 970.00,928.00 957.75,927.75
             945.50,927.50 948.50,926.75 948.50,926.75 Z
           M 1056.36,981.27
           C 1056.36,981.27 1041.45,1020.73 1041.45,1020.73
             1041.45,1020.73 1068.91,1038.18 1092.00,1037.27
             1115.09,1036.36 1131.64,1026.00 1142.18,1008.36
             1152.73,990.73 1147.09,969.45 1144.00,963.09
             1140.91,956.73 1127.27,946.36 1115.27,944.00
             1103.27,941.64 1095.64,938.00 1094.73,936.00
             1093.82,934.00 1094.73,928.18 1099.09,927.09
             1103.45,926.00 1114.36,925.82 1119.27,929.27
             1124.18,932.73 1131.09,937.82 1131.09,937.82
             1131.09,937.82 1145.27,900.36 1145.27,900.36
             1145.27,900.36 1126.55,888.00 1102.55,888.00
             1078.55,888.00 1061.09,897.45 1052.36,916.36
             1043.64,935.27 1050.73,951.82 1055.09,961.27
             1059.45,970.73 1086.91,980.00 1093.27,982.18
             1099.64,984.36 1100.18,989.27 1097.82,992.36
             1095.45,995.45 1078.91,998.55 1065.27,987.64
             1057.96,982.83 1056.36,981.27 1056.36,981.27 Z
           M 1184.67,1033.33
           C 1184.67,1033.33 1184.33,890.67 1184.33,890.67
             1184.33,890.67 1231.67,891.00 1231.67,891.00
             1231.67,891.00 1231.67,1032.33 1231.67,1032.33
             1231.67,1032.33 1184.67,1033.33 1184.67,1033.33 Z
           M 1268.33,937.33
           C 1268.00,937.33 1267.33,890.00 1267.33,890.00
             1267.33,890.00 1365.67,891.00 1365.67,891.00
             1365.67,891.00 1365.33,937.00 1365.33,937.00
             1365.33,937.00 1339.67,936.67 1339.67,936.67
             1339.67,936.67 1339.00,1033.33 1339.00,1033.33
             1339.00,1033.33 1294.33,1033.00 1294.33,1033.00
             1294.33,1033.00 1294.33,937.67 1294.33,937.67
             1294.33,937.67 1268.67,937.33 1268.33,937.33 Z
           M 1379.67,890.33
           C 1379.67,890.33 1431.33,890.67 1431.33,890.67
             1431.33,890.67 1446.33,930.67 1446.33,930.67
             1446.33,930.67 1460.67,889.00 1460.67,889.00
             1460.67,889.00 1513.33,890.67 1513.33,890.67
             1513.33,890.67 1469.00,968.00 1469.00,968.00
             1469.00,968.00 1468.67,1033.33 1468.67,1033.33
             1468.67,1033.33 1421.67,1033.67 1421.67,1033.67
             1421.67,1033.67 1422.33,971.00 1422.33,971.00
             1422.33,971.00 1379.67,890.33 1379.67,890.33 Z
           M 365.82,1121.45
           C 365.64,1106.73 378.91,1099.64 388.91,1099.82
             398.91,1100.00 411.64,1107.82 411.27,1121.09
             410.91,1134.36 400.55,1142.91 388.73,1142.91
             376.91,1142.91 366.00,1136.18 365.82,1121.45 Z
           M 352.18,1122.73
           C 352.00,1098.18 375.09,1087.82 388.18,1088.18
             401.27,1088.55 424.00,1097.45 424.18,1122.18
             424.36,1146.91 399.27,1153.64 388.91,1154.18
             378.55,1154.73 352.36,1147.27 352.18,1122.73 Z
           M 448.00,1088.36
           C 448.00,1088.36 482.55,1088.00 482.36,1088.55
             482.18,1089.09 482.36,1100.55 482.36,1100.55
             482.36,1100.55 460.55,1101.27 460.55,1101.27
             460.55,1101.27 460.00,1115.09 460.00,1115.09
             460.00,1115.09 480.73,1115.82 480.73,1115.82
             480.73,1115.82 481.09,1127.09 481.09,1127.09
             481.09,1127.09 460.18,1126.55 460.36,1126.91
             460.55,1127.27 460.55,1153.09 460.55,1153.09
             460.55,1153.09 447.27,1153.45 447.27,1153.45
             447.27,1153.45 448.00,1088.36 448.00,1088.36 Z
           M 611.09,1108.00
           C 611.09,1108.00 624.55,1107.27 624.55,1107.27
             624.55,1107.27 614.73,1087.82 594.55,1088.00
             574.36,1088.18 558.55,1102.73 558.36,1120.36
             558.18,1138.00 569.64,1152.91 590.73,1153.27
             611.82,1153.64 624.00,1137.64 624.00,1135.82
             624.00,1134.00 608.36,1136.73 608.36,1136.55
             608.36,1136.36 599.45,1146.73 586.00,1141.82
             572.55,1136.91 569.27,1128.00 569.45,1120.73
             569.64,1113.45 576.36,1103.64 586.73,1100.91
             596.61,1096.97 610.58,1106.71 611.09,1108.00 Z
           M 646.00,1089.25
           C 646.00,1089.25 646.50,1152.50 646.50,1152.50
             646.50,1152.50 679.75,1154.50 679.75,1152.75
             679.75,1151.00 679.75,1141.25 679.75,1141.25
             679.75,1141.25 659.50,1141.50 659.50,1141.50
             659.50,1141.50 659.00,1090.25 659.00,1090.25
             659.00,1090.25 646.00,1089.25 646.00,1089.25 Z
           M 700.75,1089.75
           C 701.00,1089.75 714.50,1088.50 713.75,1089.00
             713.00,1089.50 714.00,1130.00 714.50,1136.00
             715.00,1142.00 721.00,1143.25 724.75,1143.25
             728.50,1143.25 731.75,1141.75 733.50,1137.75
             735.25,1133.75 735.00,1089.50 735.00,1089.50
             735.00,1089.50 747.25,1089.75 747.25,1089.75
             747.25,1089.75 746.50,1124.50 746.25,1134.75
             746.00,1145.00 734.25,1153.75 725.50,1154.25
             716.75,1154.75 703.00,1150.00 701.75,1139.50
             700.50,1129.00 700.50,1089.75 700.75,1089.75 Z
           M 768.55,1138.18
           C 768.55,1138.18 780.64,1137.91 780.64,1137.91
             780.64,1137.91 782.45,1143.36 787.27,1143.36
             792.09,1143.36 792.45,1139.18 792.55,1137.55
             792.64,1135.91 793.00,1090.09 793.00,1090.09
             793.00,1090.09 805.27,1090.18 805.27,1090.18
             805.27,1090.18 805.09,1129.00 804.82,1137.91
             804.55,1146.82 796.82,1155.09 789.55,1154.64
             782.27,1154.18 769.09,1150.27 768.64,1140.82
             768.73,1139.27 768.55,1138.18 768.55,1138.18 Z
           M 832.36,1120.00
           C 832.36,1120.00 857.27,1120.18 857.45,1120.18
             857.64,1120.18 857.45,1131.09 857.45,1131.09
             857.45,1131.09 832.55,1130.91 832.55,1130.91
             832.55,1130.91 832.36,1120.00 832.36,1120.00 Z
           M 884.36,1152.73
           C 884.36,1152.73 884.18,1089.27 884.18,1089.09
             884.18,1088.91 899.09,1089.09 899.09,1089.09
             899.09,1089.09 926.91,1136.36 926.73,1136.36
             926.55,1136.36 927.45,1089.64 927.45,1089.64
             927.45,1089.64 939.09,1088.91 939.09,1088.91
             939.09,1088.91 939.82,1152.91 939.82,1152.91
             939.82,1152.91 925.82,1152.91 925.82,1152.91
             925.82,1152.91 896.91,1107.27 896.91,1107.27
             896.91,1107.27 896.73,1152.73 896.73,1152.73
             896.73,1152.73 884.36,1152.73 884.36,1152.73 Z
           M 960.55,1151.64
           C 960.55,1151.64 989.09,1089.09 989.09,1089.09
             989.09,1089.09 998.55,1088.73 998.55,1088.73
             998.55,1088.73 1027.09,1152.73 1027.09,1152.73
             1027.09,1152.73 1014.73,1153.27 1014.73,1153.27
             1014.73,1153.27 1006.36,1136.91 1006.36,1136.91
             1006.36,1136.91 982.55,1136.55 982.18,1136.73
             981.82,1136.91 974.18,1153.09 974.18,1153.09
             974.18,1153.09 960.55,1151.64 960.55,1151.64 Z
           M 987.09,1126.00
           C 987.09,1126.00 994.00,1106.18 994.00,1106.18
             994.00,1106.18 1001.64,1125.64 1001.64,1125.64
             1001.64,1125.64 987.09,1126.00 987.09,1126.00 Z
           M 1048.18,1153.09
           C 1048.18,1153.09 1048.55,1089.82 1048.55,1089.64
             1048.55,1089.45 1065.27,1089.64 1074.00,1090.00
             1082.73,1090.36 1092.73,1099.27 1091.82,1108.18
             1090.91,1117.09 1086.55,1126.36 1078.00,1127.82
             1069.45,1129.27 1061.09,1129.27 1061.09,1129.09
             1061.09,1128.91 1060.55,1152.91 1060.55,1152.91
             1060.55,1152.91 1048.18,1153.09 1048.18,1153.09 Z
           M 1061.27,1117.45
           C 1061.27,1117.45 1060.91,1101.09 1061.09,1101.09
             1061.27,1101.09 1067.64,1100.73 1073.09,1100.91
             1078.55,1101.09 1078.91,1107.64 1078.91,1109.45
             1078.91,1111.27 1077.09,1118.00 1072.00,1118.18
             1066.91,1118.36 1061.27,1117.45 1061.27,1117.45 Z
           M 1122.73,1120.73
           C 1123.09,1105.64 1134.36,1100.55 1146.00,1099.64
             1157.64,1098.73 1170.00,1111.45 1169.09,1121.09
             1168.18,1130.73 1158.55,1143.82 1146.55,1143.45
             1134.55,1143.09 1122.36,1135.82 1122.73,1120.73 Z
           M 1109.82,1122.55
           C 1109.45,1100.36 1128.18,1088.00 1145.27,1088.18
             1162.36,1088.36 1181.27,1100.18 1180.91,1120.00
             1180.55,1139.82 1164.73,1155.64 1147.27,1155.27
             1129.82,1154.91 1110.18,1144.73 1109.82,1122.55 Z
           M 1200.00,1121.64
           C 1199.64,1096.18 1228.55,1086.91 1237.09,1088.00
             1245.64,1089.09 1263.45,1093.45 1268.18,1106.91
             1258.91,1106.55 1254.18,1107.64 1254.18,1107.64
             1254.18,1107.64 1238.73,1093.27 1223.64,1103.64
             1208.55,1114.00 1212.73,1129.09 1220.73,1136.18
             1228.73,1143.27 1240.00,1149.27 1252.55,1136.73
             1263.64,1136.55 1267.82,1135.45 1267.82,1135.45
             1267.82,1135.45 1260.73,1155.09 1235.45,1153.64
             1210.18,1152.18 1204.18,1138.18 1200.00,1121.64 Z
           M 1284.91,1152.55
           C 1285.09,1152.55 1313.64,1089.09 1313.64,1089.09
             1313.64,1089.09 1322.18,1088.91 1322.18,1088.91
             1322.18,1088.91 1352.91,1152.55 1352.73,1152.36
             1352.55,1152.18 1337.45,1153.64 1337.64,1153.64
             1337.82,1153.64 1330.91,1137.09 1330.91,1137.09
             1330.91,1137.09 1306.91,1136.91 1306.91,1136.91
             1306.91,1136.91 1298.00,1152.91 1298.00,1152.91
             1298.00,1152.91 1284.73,1152.55 1284.91,1152.55 Z
           M 1311.27,1125.09
           C 1311.27,1125.09 1318.73,1106.18 1318.73,1106.18
             1318.73,1106.18 1326.36,1125.09 1326.36,1125.09
             1326.36,1125.09 1311.27,1125.09 1311.27,1125.09 Z
           M 594.00,1247.38
           C 594.00,1247.38 594.38,1183.50 594.25,1183.50
             594.12,1183.50 610.75,1183.12 620.75,1183.12
             630.75,1183.12 640.25,1194.88 639.88,1203.62
             639.50,1212.38 630.50,1225.12 622.38,1222.50
             628.50,1231.62 639.88,1246.62 639.88,1246.62
             639.88,1246.62 625.00,1247.25 625.00,1247.25
             625.00,1247.25 607.00,1222.38 607.00,1222.38
             607.00,1222.38 607.12,1247.25 607.12,1247.12
             607.12,1247.00 594.00,1247.38 594.00,1247.38 Z
           M 607.25,1214.00
           C 607.25,1214.00 606.88,1195.12 606.88,1195.12
             606.88,1195.12 611.00,1194.38 617.88,1194.75
             627.75,1194.62 632.38,1210.00 619.62,1213.75
             610.75,1213.62 607.25,1214.00 607.25,1214.00 Z
           M 670.50,1216.00
           C 670.12,1197.88 686.12,1193.62 693.88,1193.75
             701.62,1193.88 716.75,1199.00 716.62,1214.62
             716.50,1230.25 704.62,1237.12 695.75,1237.25
             686.88,1237.38 670.88,1234.12 670.50,1216.00 Z
           M 657.50,1216.12
           C 657.75,1192.75 677.38,1181.38 692.12,1182.00
             706.88,1182.62 727.38,1190.38 728.25,1213.88
             729.12,1237.38 710.50,1248.12 694.88,1248.38
             679.25,1248.62 657.25,1239.50 657.50,1216.12 Z
           M 752.75,1246.88
           C 752.75,1246.88 751.25,1183.12 752.12,1183.12
             753.00,1183.12 769.50,1183.12 769.50,1183.12
             769.50,1183.12 788.00,1231.88 788.00,1231.50
             788.00,1231.12 806.38,1183.75 806.38,1183.75
             806.38,1183.75 823.75,1183.00 823.75,1183.00
             823.75,1183.00 823.75,1247.12 823.75,1247.12
             823.75,1247.12 810.12,1247.25 810.12,1247.25
             810.12,1247.25 810.75,1200.50 810.75,1200.50
             810.75,1200.50 793.62,1247.00 793.62,1247.00
             793.62,1247.00 782.25,1247.25 782.25,1247.25
             782.25,1247.25 765.62,1199.75 765.62,1199.75
             765.62,1199.75 765.62,1247.25 765.62,1247.25
             765.62,1247.25 752.75,1246.88 752.75,1246.88 Z
           M 844.00,1246.18
           C 844.36,1244.55 870.55,1184.55 872.00,1184.55
             873.45,1184.55 882.55,1184.00 882.55,1184.00
             882.55,1184.00 911.09,1246.91 911.09,1246.91
             911.09,1246.91 896.18,1247.64 896.18,1247.64
             896.18,1247.64 890.18,1230.91 890.00,1230.91
             889.82,1230.91 865.09,1231.09 865.09,1231.09
             865.09,1231.09 856.55,1246.36 856.55,1246.36
             856.55,1246.36 843.64,1247.82 844.00,1246.18 Z
           M 869.64,1219.09
           C 869.64,1218.55 877.09,1200.36 877.09,1200.36
             877.09,1200.36 884.73,1219.27 884.18,1219.27
             883.64,1219.27 869.64,1219.64 869.64,1219.09 Z
           M 930.55,1246.18
           C 930.55,1246.18 931.27,1183.82 931.27,1183.64
             931.27,1183.45 946.00,1183.45 946.00,1183.45
             946.00,1183.45 974.18,1229.82 974.18,1229.82
             974.18,1229.82 973.64,1183.09 973.64,1183.09
             973.64,1183.09 986.00,1183.64 986.00,1183.64
             986.00,1183.64 986.55,1247.82 986.55,1247.82
             986.55,1247.82 970.91,1246.73 970.91,1246.55
             970.91,1246.36 943.82,1201.82 943.82,1201.82
             943.82,1201.82 943.45,1247.27 943.45,1247.27
             943.45,1247.27 930.55,1246.18 930.55,1246.18 Z
           M 1013.64,1184.00
           C 1013.64,1184.00 1026.36,1184.00 1026.36,1184.00
             1026.36,1184.00 1026.36,1246.73 1026.36,1246.73
             1026.36,1246.73 1013.27,1247.27 1013.27,1247.27
             1013.27,1247.27 1013.64,1184.00 1013.64,1184.00 Z
           M 1075.64,1184.00
           C 1075.82,1183.82 1086.36,1183.82 1086.36,1183.82
             1086.36,1183.82 1114.55,1247.45 1114.55,1247.27
             1114.55,1247.09 1100.00,1246.55 1100.00,1246.55
             1100.00,1246.55 1092.00,1230.91 1092.00,1230.91
             1092.00,1230.91 1068.55,1230.36 1068.55,1230.36
             1068.55,1230.36 1061.45,1246.36 1061.45,1246.36
             1061.45,1246.36 1047.09,1247.09 1047.09,1247.09
             1047.09,1247.09 1075.45,1184.18 1075.64,1184.00 Z
           M 1072.73,1219.27
           C 1072.73,1219.27 1080.73,1201.09 1080.73,1201.09
             1080.73,1201.09 1088.18,1219.45 1088.18,1219.45
             1088.18,1219.45 1072.73,1219.27 1072.73,1219.27 Z" />
</svg>
