<?xml version="1.0" encoding="UTF-8" standalone="no"?>
<!DOCTYPE svg PUBLIC "-//W3C//DTD SVG 20010904//EN"
              "http://www.w3.org/TR/2001/REC-SVG-20010904/DTD/svg10.dtd">

<svg xmlns="http://www.w3.org/2000/svg"
     width="16.3407mm" height="19.8967mm"
     viewBox="0 0 193 235">
  <path id="Unnamed"
        fill="none" stroke="black" stroke-width="1"
        d="M 8.78,38.26
           C 8.78,38.26 11.17,41.87 11.17,41.87
             11.17,41.87 13.26,38.35 13.26,38.35
             13.26,38.35 8.78,38.26 8.78,38.26 Z
           M 15.17,36.09
           C 15.17,36.09 17.26,28.96 17.26,28.96
             17.26,28.96 22.96,34.48 22.96,34.48
             22.96,34.48 15.17,36.09 15.17,36.09 Z
           M 12.22,49.17
           C 12.22,49.17 14.52,41.78 14.52,41.78
             14.52,41.78 19.04,47.00 19.04,47.00
             19.04,47.00 12.22,49.17 12.22,49.17 Z
           M 25.26,48.30
           C 25.26,48.30 25.48,40.30 25.48,40.30
             25.48,40.30 31.65,44.43 31.65,44.43
             31.65,44.43 25.26,48.30 25.26,48.30 Z
           M 25.22,33.78
           C 25.22,33.78 31.74,41.39 31.74,41.39
             31.74,41.39 35.22,31.26 35.22,31.26
             35.22,31.26 25.22,33.78 25.22,33.78 Z
           M 21.43,23.30
           C 21.43,23.30 24.87,28.30 24.87,28.30
             24.87,28.30 27.74,23.04 27.74,23.04
             27.74,23.04 21.43,23.30 21.43,23.30 Z
           M 32.09,21.61
           C 32.09,21.61 38.96,21.39 38.96,21.39
             38.96,21.39 35.65,16.00 35.57,16.22
             35.48,16.43 32.09,21.61 32.09,21.61 Z
           M 38.09,29.48
           C 38.09,29.43 47.17,35.04 47.17,35.04
             47.17,35.04 47.39,23.43 47.39,23.43
             47.39,23.43 38.09,29.52 38.09,29.48 Z
           M 17.94,61.91
           C 17.94,61.91 49.81,43.56 49.81,43.56
             49.81,43.56 49.50,154.00 49.50,154.00
             49.50,154.00 18.19,135.56 18.19,135.56
             18.19,135.56 17.94,61.91 17.94,61.91 Z
           M 51.31,116.56
           C 51.31,116.56 51.50,152.88 51.50,152.88
             51.50,152.88 80.56,136.00 80.56,136.00
             80.56,136.00 80.38,99.12 80.38,99.12
             80.38,99.12 51.31,116.56 51.31,116.56 Z
           M 82.19,135.75
           C 82.19,135.75 82.19,62.12 82.19,62.12
             82.19,62.12 113.62,44.06 113.62,44.06
             113.62,44.06 114.00,153.75 114.00,153.75
             114.00,153.75 82.19,135.75 82.19,135.75 Z
           M 115.62,117.19
           C 115.62,117.19 115.75,153.19 115.75,153.19
             115.75,153.19 144.88,135.88 144.88,135.88
             144.88,135.88 144.06,99.69 144.06,99.69
             144.06,99.69 115.62,117.19 115.62,117.19 Z
           M 146.44,135.38
           C 146.44,135.38 178.12,117.00 178.12,117.00
             178.12,117.00 177.19,43.56 177.19,43.56
             177.19,43.56 146.50,25.56 146.50,25.56
             146.50,25.56 146.44,135.38 146.44,135.38 Z
           M 17.87,169.74
           C 17.87,169.74 24.30,169.96 24.30,169.96
             24.30,169.96 23.91,179.91 23.91,179.91
             23.91,179.91 30.52,169.57 30.52,169.57
             30.52,169.57 36.04,169.39 36.04,169.43
             36.04,169.48 36.57,180.43 36.57,180.43
             36.57,180.43 42.30,169.91 42.30,169.91
             42.30,169.91 48.30,169.61 48.30,169.65
             48.30,169.70 43.04,180.35 43.04,180.35
             43.04,180.35 45.70,180.57 45.70,180.57
             45.70,180.57 40.83,191.30 40.83,191.30
             40.83,191.30 33.70,191.48 33.70,191.48
             33.70,191.48 33.83,180.00 33.83,180.00
             33.83,180.00 32.09,179.96 32.09,179.96
             32.09,179.96 25.65,191.57 25.65,191.57
             25.65,191.57 19.87,191.52 19.87,191.52
             19.87,191.52 19.65,180.17 19.65,180.17
             19.65,180.17 17.61,179.83 17.61,179.83
             17.61,179.83 17.87,169.74 17.87,169.74 Z
           M 59.13,169.26
           C 59.17,169.26 73.96,169.48 73.96,169.48
             73.96,169.48 77.30,171.13 77.30,171.13
             77.30,171.13 78.17,173.57 78.17,173.65
             78.17,173.74 76.48,176.78 76.48,176.78
             76.48,176.78 74.35,179.48 74.35,179.48
             74.35,179.48 75.70,180.52 75.65,180.57
             75.61,180.61 73.74,181.48 73.74,181.48
             73.74,181.48 75.74,183.74 75.74,183.74
             75.74,183.74 77.22,188.35 77.17,188.43
             77.13,188.52 77.04,191.09 77.00,191.13
             76.96,191.17 69.57,191.26 69.57,191.26
             69.57,191.26 68.61,187.00 68.61,186.74
             68.61,186.48 66.57,181.74 66.57,181.74
             66.57,181.74 65.30,181.74 65.30,181.74
             65.30,181.74 64.48,184.87 64.48,185.09
             64.48,185.30 62.96,190.17 62.96,190.26
             62.96,190.35 56.09,190.74 56.09,190.74
             56.09,190.74 59.04,182.00 59.04,181.96
             59.04,181.91 58.61,179.83 58.61,179.83
             58.61,179.83 56.26,179.74 56.26,179.74
             56.26,179.74 57.65,174.96 57.65,174.96
             57.65,174.96 59.09,169.26 59.13,169.26 Z
           M 91.65,179.70
           C 91.65,179.70 89.13,179.48 89.13,179.48
             89.13,179.48 91.83,169.48 91.83,169.48
             91.83,169.48 110.13,169.35 109.87,169.65
             109.61,169.96 108.48,174.48 108.48,174.48
             108.48,174.48 97.65,174.17 97.61,174.17
             97.57,174.17 96.04,177.78 96.04,177.78
             96.04,177.78 106.70,177.83 106.65,177.91
             106.61,178.00 105.78,180.13 105.78,180.13
             105.78,180.13 109.22,180.61 109.22,180.61
             109.22,180.61 108.48,181.70 108.48,181.70
             108.48,181.70 97.70,181.96 97.70,181.96
             97.70,181.96 96.26,185.74 96.26,185.74
             96.26,185.74 108.04,186.61 108.04,186.61
             108.04,186.61 106.78,191.39 106.78,191.39
             106.78,191.39 88.96,191.00 88.96,191.00
             88.96,191.00 91.65,179.70 91.65,179.70 Z
           M 123.66,179.91
           C 123.66,179.91 121.03,179.75 121.03,179.75
             121.03,179.75 122.09,176.59 122.16,176.31
             122.22,176.03 125.66,171.84 125.66,171.84
             125.66,171.84 129.38,169.75 129.44,169.75
             129.50,169.75 134.56,169.34 134.62,169.31
             134.69,169.28 139.62,169.81 139.62,169.81
             139.62,169.81 142.12,171.81 142.12,171.81
             142.12,171.81 142.94,174.81 142.91,174.94
             142.88,175.06 141.69,176.38 141.59,176.44
             141.50,176.50 138.47,177.44 138.34,177.44
             138.22,177.44 135.66,174.84 135.53,174.72
             135.41,174.59 133.25,173.66 133.19,173.66
             133.12,173.66 129.78,175.56 129.69,175.66
             129.59,175.75 127.72,178.59 127.72,178.59
             127.72,178.59 127.19,181.03 127.19,181.03
             127.19,181.03 130.03,180.75 130.03,180.75
             130.03,180.75 129.50,182.56 129.50,182.56
             129.50,182.56 129.72,185.00 129.72,185.00
             129.72,185.00 132.00,186.56 132.06,186.59
             132.12,186.62 136.19,186.19 136.19,186.19
             136.19,186.19 138.19,182.38 138.19,182.31
             138.19,182.25 141.03,182.41 141.41,182.88
             141.78,183.34 143.19,184.72 143.19,184.72
             143.19,184.72 141.66,186.94 141.62,186.97
             141.59,187.00 138.47,190.16 138.44,190.16
             138.41,190.16 134.41,191.81 134.38,191.81
             134.34,191.81 127.56,190.78 127.50,190.78
             127.44,190.78 123.16,187.16 123.16,187.16
             123.16,187.16 123.38,180.91 123.38,180.91
             123.38,180.91 123.66,179.91 123.66,179.91 Z
           M 153.00,179.97
           C 153.03,179.97 155.66,169.31 155.66,169.31
             155.66,169.31 162.00,169.59 162.00,169.75
             162.00,169.91 160.25,177.75 160.25,177.75
             160.25,177.75 169.81,169.62 169.81,169.62
             169.81,169.62 177.25,169.78 177.28,169.78
             177.31,169.78 168.22,177.75 168.22,177.75
             168.22,177.75 168.47,179.31 168.47,179.31
             168.47,179.31 170.56,180.91 170.56,180.91
             170.56,180.91 171.66,181.66 171.69,181.66
             171.72,181.66 174.94,187.34 174.94,187.34
             174.94,187.34 175.50,190.50 175.50,190.59
             175.50,190.69 167.06,191.03 167.06,191.03
             167.06,191.03 165.22,182.66 165.22,182.66
             165.22,182.66 162.75,183.38 162.72,183.72
             162.69,184.06 160.50,186.22 160.53,186.44
             160.56,186.66 159.47,190.81 159.47,190.81
             159.47,190.81 153.94,191.03 153.94,191.03
             153.94,191.03 152.50,190.44 152.53,190.44
             152.56,190.44 154.44,186.41 154.44,186.41
             154.44,186.41 155.19,181.88 155.19,181.88
             155.19,181.88 155.31,179.94 155.31,179.94
             155.31,179.94 152.97,179.97 153.00,179.97 Z
           M 20.56,203.91
           C 20.56,203.93 17.11,203.96 17.11,203.96
             17.11,203.96 17.31,200.44 17.31,200.44
             17.31,200.44 28.02,200.73 28.02,200.73
             28.02,200.73 28.07,203.73 28.07,203.73
             28.07,203.73 24.64,204.04 24.64,204.04
             24.64,204.04 24.44,222.29 24.56,222.29
             24.67,222.29 20.80,222.44 20.80,222.44
             20.80,222.44 20.56,203.89 20.56,203.91 Z
           M 40.66,200.50
           C 40.75,200.50 44.38,200.72 44.38,200.72
             44.38,200.72 44.78,209.06 44.78,209.06
             44.78,209.06 48.09,209.16 48.09,209.16
             48.09,209.16 48.16,200.94 48.16,200.94
             48.16,200.94 51.78,201.06 51.78,201.06
             51.78,201.06 51.91,222.22 51.91,222.22
             51.91,222.22 47.66,222.09 47.66,222.09
             47.66,222.09 47.75,212.56 47.75,212.56
             47.75,212.56 44.72,212.59 44.72,212.59
             44.72,212.59 44.56,222.28 44.56,222.28
             44.56,222.28 40.38,222.53 40.38,222.53
             40.38,222.53 40.16,212.66 40.16,212.66
             40.16,212.66 44.62,211.03 44.62,211.03
             44.62,211.03 40.41,204.09 40.41,204.09
             40.41,204.09 40.56,200.50 40.66,200.50 Z
           M 69.40,211.13
           C 69.40,211.13 64.93,203.96 64.93,203.96
             64.93,203.96 65.27,200.51 65.27,200.49
             65.27,200.47 73.49,199.93 73.60,200.38
             73.71,200.82 73.87,204.24 73.87,204.24
             73.87,204.24 69.80,204.11 69.80,204.11
             69.80,204.11 69.64,208.64 69.64,208.64
             69.64,208.64 73.04,209.22 73.02,209.33
             73.00,209.44 72.82,212.82 72.82,212.82
             72.82,212.82 69.53,213.24 69.53,213.24
             69.53,213.24 69.40,219.07 69.40,219.07
             69.40,219.07 73.60,218.87 73.60,218.87
             73.60,218.87 73.69,222.76 73.69,222.76
             73.69,222.76 65.44,222.82 65.44,222.82
             65.44,222.82 65.44,212.71 65.44,212.71
             65.44,212.71 69.40,211.13 69.40,211.13 Z
           M 101.13,200.83
           C 101.13,200.83 105.04,200.91 105.04,200.91
             105.04,200.91 105.30,219.04 105.30,219.04
             105.30,219.04 110.04,218.87 110.04,218.96
             110.04,219.04 110.04,223.00 110.00,223.00
             109.96,223.00 100.87,223.04 100.87,223.04
             100.87,223.04 101.13,200.83 101.13,200.83 Z
           M 125.48,200.91
           C 125.48,200.91 129.35,200.78 129.35,200.78
             129.35,200.78 129.96,222.83 129.96,222.83
             129.96,222.83 125.43,222.83 125.39,222.83
             125.35,222.83 125.48,200.91 125.48,200.91 Z
           M 143.65,222.70
           C 143.65,222.70 143.65,200.43 143.65,200.43
             143.65,200.43 147.00,200.35 147.00,200.35
             147.00,200.35 151.35,210.83 151.35,210.83
             151.35,210.83 151.65,200.48 151.65,200.48
             151.65,200.48 155.91,200.48 155.70,200.65
             155.48,200.83 155.39,222.57 155.39,222.57
             155.39,222.57 151.57,222.13 151.57,222.13
             151.57,222.13 147.26,210.22 147.26,210.22
             147.26,210.22 147.91,222.65 147.91,222.65
             147.91,222.65 143.65,222.70 143.65,222.70 Z
           M 175.91,222.87
           C 175.91,222.87 167.26,222.48 167.26,222.48
             167.26,222.48 167.09,212.52 167.09,212.52
             167.09,212.52 170.87,212.17 170.87,212.17
             170.87,212.17 167.00,204.09 167.00,204.09
             167.00,204.09 167.17,200.39 167.17,200.39
             167.17,200.39 176.09,200.52 176.09,200.52
             176.09,200.52 176.04,204.26 176.04,204.26
             176.04,204.26 171.52,204.09 171.52,204.09
             171.52,204.09 171.74,209.13 171.74,209.13
             171.74,209.13 175.09,209.39 175.09,209.39
             175.09,209.39 175.13,212.48 175.13,212.48
             175.13,212.48 171.78,213.35 171.78,213.35
             171.78,213.35 171.70,219.13 171.70,219.00
             171.70,218.87 175.91,218.65 175.91,218.65
             175.91,218.65 175.91,222.87 175.91,222.87 Z" />
</svg>
