<?xml version="1.0" encoding="UTF-8" standalone="no"?>
<!DOCTYPE svg PUBLIC "-//W3C//DTD SVG 20010904//EN"
              "http://www.w3.org/TR/2001/REC-SVG-20010904/DTD/svg10.dtd">

<svg xmlns="http://www.w3.org/2000/svg"
     width="2.31333in" height="2.25in"
     viewBox="0 0 694 675">
  <path id="Unnamed"
        fill="none" stroke="black" stroke-width="1"
        d="M 1.00,164.50
           C 1.00,164.50 49.50,153.50 49.50,153.50
             49.50,153.50 58.00,187.50 58.00,187.50
             58.00,187.50 68.00,240.00 68.00,240.00
             68.00,240.00 69.50,297.00 69.50,297.00
             69.50,297.00 77.00,299.50 77.00,299.50
             77.00,299.50 90.00,274.50 90.00,274.50
             90.00,274.50 91.50,231.00 91.50,231.00
             91.50,231.00 109.00,184.50 109.00,184.50
             109.00,184.50 120.00,148.00 121.00,147.00
             122.00,146.00 149.00,133.00 149.00,133.00
             149.00,133.00 166.50,134.50 168.00,134.50
             169.50,134.50 171.50,150.00 171.50,150.00
             171.50,150.00 163.50,172.50 163.50,172.50
             163.50,172.50 157.00,197.00 155.00,199.50
             153.00,202.00 148.50,223.00 146.50,226.50
             144.50,230.00 135.00,259.00 135.00,261.50
             135.00,264.00 128.50,297.00 128.50,297.00
             128.50,297.00 119.50,338.00 119.50,338.00
             119.50,338.00 110.50,382.00 110.50,382.00
             110.50,382.00 100.50,413.00 99.50,414.50
             98.50,416.00 82.00,450.00 81.50,451.00
             81.00,452.00 61.00,470.50 59.50,472.00
             58.00,473.50 35.00,479.00 35.00,479.00
             35.00,479.00 3.50,482.50 3.50,482.50
             3.50,482.50 2.00,435.00 2.00,435.00
             2.00,435.00 27.00,427.00 27.00,427.00
             27.00,427.00 45.50,420.50 46.00,419.00
             46.50,417.50 48.00,384.00 48.00,382.00
             48.00,380.00 45.00,348.50 44.00,347.00
             43.00,345.50 33.50,303.50 33.50,303.50
             33.50,303.50 25.00,261.50 25.00,261.50
             25.00,261.50 6.50,204.50 6.50,204.50
             6.50,204.50 1.00,164.50 1.00,164.50 Z
           M 284.50,290.00
           C 284.50,290.00 341.00,284.00 341.00,284.00
             341.00,284.00 340.50,307.00 340.50,307.00
             340.50,307.00 318.00,359.00 318.00,359.00
             318.00,359.00 291.50,380.50 291.50,380.50
             291.50,380.50 237.00,384.50 236.50,384.50
             236.00,384.50 197.50,370.50 197.50,370.50
             197.50,370.50 181.00,339.50 181.00,339.50
             181.00,339.50 178.50,302.00 178.50,299.50
             178.50,297.00 179.00,218.00 179.00,218.00
             179.00,218.00 196.50,176.00 198.00,173.50
             199.50,171.00 233.50,136.50 233.50,136.50
             233.50,136.50 276.00,125.00 276.00,125.00
             276.00,125.00 320.00,125.00 320.00,125.00
             320.00,125.00 342.00,151.00 342.00,151.00
             342.00,151.00 343.00,185.00 343.00,185.00
             343.00,185.00 336.50,244.50 336.50,244.50
             336.50,244.50 304.00,252.50 304.00,252.50
             304.00,252.50 248.00,265.50 248.00,265.50
             248.00,265.50 234.50,286.00 234.50,288.00
             234.50,290.00 236.00,321.50 236.00,321.50
             236.00,321.50 254.00,345.00 254.50,345.00
             255.00,345.00 276.50,338.50 277.00,338.00
             277.50,337.50 287.00,309.00 287.00,309.00
             287.00,309.00 284.50,290.00 284.50,290.00 Z
           M 249.50,204.50
           C 249.50,204.50 281.00,208.50 281.00,208.50
             281.00,208.50 291.33,200.33 291.33,200.33
             291.33,200.33 289.50,182.50 289.00,182.00
             288.50,181.50 273.00,177.67 273.00,177.67
             273.00,177.67 251.00,181.00 251.00,181.00
             251.00,181.00 249.50,204.50 249.50,204.50 Z
           M 433.67,184.33
           C 433.67,183.67 435.00,172.00 436.33,170.33
             437.67,168.67 451.00,160.00 451.00,160.00
             451.00,160.00 469.33,161.67 469.33,161.67
             469.33,161.67 480.00,168.33 480.00,168.67
             480.00,169.00 476.00,183.33 476.00,183.33
             476.00,183.33 464.33,190.33 461.67,190.33
             459.00,190.33 436.67,190.33 436.67,190.33
             436.67,190.33 433.67,185.00 433.67,184.33 Z
           M 434.67,242.00
           C 434.67,242.00 471.67,237.33 471.67,237.33
             471.67,237.33 516.33,232.00 516.33,232.00
             516.33,232.00 528.67,225.67 528.67,225.67
             528.67,225.67 532.67,201.33 532.33,201.00
             532.00,200.67 532.67,144.00 532.67,144.00
             532.67,144.00 517.00,117.67 517.00,117.67
             517.00,117.67 480.00,113.00 480.00,113.00
             480.00,113.00 443.67,117.00 443.67,117.00
             443.67,117.00 409.00,138.00 409.00,138.00
             409.00,138.00 393.67,166.33 393.67,166.33
             393.67,166.33 376.67,204.67 376.67,204.67
             376.67,204.67 369.33,236.00 369.33,236.00
             369.33,236.00 370.00,282.67 370.00,283.00
             370.00,283.33 370.67,319.67 370.67,320.33
             370.67,321.00 382.67,347.67 382.67,347.67
             382.67,347.67 405.33,369.33 405.33,369.33
             405.33,369.33 440.67,373.67 440.67,373.67
             440.67,373.67 464.67,366.67 467.33,365.00
             470.00,363.33 501.67,348.67 502.33,347.67
             503.00,346.67 518.67,318.33 518.67,318.33
             518.67,318.33 523.33,283.00 523.33,283.00
             523.33,283.00 516.67,268.33 516.67,268.33
             516.67,268.33 495.00,268.67 495.00,268.67
             495.00,268.67 477.00,272.67 477.00,272.67
             477.00,272.67 475.00,292.33 474.67,292.67
             474.33,293.00 464.00,310.00 464.00,310.00
             464.00,310.00 445.33,314.33 445.33,314.33
             445.33,314.33 431.67,309.33 431.67,308.67
             431.67,308.00 427.67,287.67 426.67,283.00
             425.67,278.33 425.67,253.33 425.67,253.33
             425.67,253.33 434.67,242.00 434.67,242.00 Z
           M 568.67,91.33
           C 570.00,90.67 589.67,90.00 590.33,89.67
             591.00,89.33 601.00,64.00 601.33,62.00
             601.67,60.00 605.67,31.67 606.67,29.33
             607.67,27.00 614.67,2.00 615.33,1.67
             616.00,1.33 664.33,2.00 664.33,2.00
             664.33,2.00 654.67,46.00 654.67,46.00
             654.67,46.00 656.00,76.33 656.00,77.00
             656.00,77.67 663.33,86.67 663.67,86.67
             664.00,86.67 687.67,87.67 687.67,87.67
             687.67,87.67 689.00,103.00 689.00,103.00
             689.00,103.00 684.67,118.33 684.67,119.33
             684.67,120.33 679.33,133.00 679.33,133.00
             679.33,133.00 648.67,132.67 648.67,132.67
             648.67,132.67 639.33,164.33 639.33,164.67
             639.33,165.00 635.00,205.00 635.33,205.33
             635.67,205.67 628.67,237.33 628.67,237.33
             628.67,237.33 627.33,278.00 627.33,278.33
             627.33,278.67 630.33,297.33 630.33,297.67
             630.33,298.00 646.33,298.33 646.33,298.33
             646.33,298.33 660.00,298.00 659.67,300.00
             659.33,302.00 659.33,323.67 659.33,323.67
             659.33,323.67 654.00,340.00 654.00,340.00
             654.00,340.00 624.33,340.33 623.67,340.33
             623.00,340.33 596.00,341.33 594.00,341.33
             592.00,341.33 579.00,327.33 579.00,327.33
             579.00,327.33 572.33,311.00 572.00,308.67
             571.67,306.33 569.00,274.33 569.00,272.00
             569.00,269.67 577.33,239.67 580.00,235.00
             582.67,230.33 588.33,201.67 589.00,199.67
             589.67,197.67 588.00,134.33 588.00,134.33
             588.00,134.33 570.33,129.00 570.33,129.33
             570.33,129.67 567.33,92.00 568.67,91.33 Z
           M 60.00,507.33
           C 60.00,507.00 43.00,537.67 43.00,537.67
             43.00,537.67 51.00,560.33 51.00,560.67
             51.00,561.00 71.33,572.67 72.67,572.67
             74.00,572.67 115.00,561.67 115.00,561.67
             115.00,561.67 166.00,541.67 167.33,541.67
             168.67,541.67 272.33,514.33 272.33,514.33
             272.33,514.33 363.33,491.67 363.33,491.67
             363.33,491.67 468.67,477.00 468.67,477.00
             468.67,477.00 593.00,469.33 593.00,469.33
             593.00,469.33 630.33,454.67 630.33,454.67
             630.33,454.67 628.67,411.33 628.67,411.33
             628.67,411.33 606.00,399.67 606.00,399.67
             606.00,399.67 548.00,399.67 546.67,399.67
             545.33,399.67 459.67,405.67 456.00,407.00
             452.33,408.33 412.67,411.67 412.67,411.67
             412.67,411.67 329.67,428.67 329.67,428.67
             329.67,428.67 265.00,441.00 265.00,441.00
             265.00,441.00 185.00,452.33 185.00,452.33
             185.00,452.33 136.00,474.33 136.00,474.33
             136.00,474.33 85.33,493.33 84.67,493.67
             84.00,494.00 60.00,507.67 60.00,507.33 Z
           M 185.67,636.67
           C 185.67,636.67 201.33,612.00 201.33,612.00
             201.33,612.00 233.67,588.67 234.00,588.00
             234.33,587.33 295.67,577.33 295.67,577.33
             295.67,577.33 374.33,556.67 374.33,556.67
             374.33,556.67 417.67,543.33 417.67,543.33
             417.67,543.33 501.33,532.00 501.33,532.00
             501.33,532.00 562.00,535.33 562.00,535.33
             562.00,535.33 586.00,551.67 586.00,551.67
             586.00,551.67 590.67,572.67 590.67,574.00
             590.67,575.33 579.67,597.67 579.33,598.00
             579.00,598.33 564.67,609.00 564.33,609.00
             564.00,609.00 511.33,612.00 511.00,612.00
             510.67,612.00 459.67,618.67 459.67,618.67
             459.67,618.67 400.00,628.67 400.00,628.67
             400.00,628.67 358.33,634.33 357.67,634.67
             357.00,635.00 324.67,644.00 324.00,645.33
             323.33,646.67 291.67,660.00 291.33,660.00
             291.00,660.00 252.67,669.67 252.33,670.33
             252.00,671.00 231.33,673.33 230.00,673.33
             228.67,673.33 213.00,667.00 213.00,667.00
             213.00,667.00 195.67,657.00 195.33,656.33
             195.00,655.67 185.67,636.67 185.67,636.67 Z" />
</svg>
